<?xml version="1.0" encoding="utf-8"?><svg xmlns="http://www.w3.org/2000/svg" xmlns:xlink="http://www.w3.org/1999/xlink" width="1191" height="504" preserveAspectRatio="xMidYMid" viewBox="0 0 1191 504" style="z-index:1;margin-right:-2px;display:block;background-repeat-y:initial;background-repeat-x:initial;background-color:rgb(241, 242, 243);animation-play-state:paused" ><g transform="translate(595.5,252) scale(1,1) translate(-595.5,-252)" style="transform:matrix(1, 0, 0, 1, 0, 0);animation-play-state:paused" ><linearGradient id="lg-0.7663653041206264" x1="0" x2="1" y1="0" y2="0" style="animation-play-state:paused" ><stop stop-color="#15c4c2" offset="0" style="animation-play-state:paused" ></stop>

  
<stop stop-color="#1b75be" offset="1" style="animation-play-state:paused" ></stop></linearGradient>
<path d="M 0 0 L 0 267.19 Q 119.1 283.813 238.2 259.405 T 476.4 275.848 T 714.6 173.673 T 952.8 242.877 T 1191 139.018 L 1191 0 Z" fill="url(#lg-0.7663653041206264)" opacity="0.4" style="opacity:0.4;animation-play-state:paused" ></path>
<path d="M 0 0 L 0 304.424 Q 119.1 295.989 238.2 243.971 T 476.4 280.318 T 714.6 306.618 T 952.8 181.571 T 1191 199.804 L 1191 0 Z" fill="url(#lg-0.7663653041206264)" opacity="0.4" style="opacity:0.4;animation-play-state:paused" ></path>
<path d="M 0 0 L 0 294.345 Q 119.1 294.685 238.2 263.112 T 476.4 315.043 T 714.6 294.558 T 952.8 155.076 T 1191 211.948 L 1191 0 Z" fill="url(#lg-0.7663653041206264)" opacity="0.4" style="opacity:0.4;animation-play-state:paused" ></path></g></svg>