<?xml version="1.0" encoding="utf-8"?><svg xmlns="http://www.w3.org/2000/svg" xmlns:xlink="http://www.w3.org/1999/xlink" width="1366" height="636" preserveAspectRatio="xMidYMid" viewBox="0 0 1366 636" style="z-index:1;margin-right:-2px;display:block;background-repeat-y:initial;background-repeat-x:initial;background-color:rgb(255, 255, 255);animation-play-state:paused" ><g transform="translate(683,318) scale(1,1) translate(-683,-318)" style="transform:matrix(1, 0, 0, 1, 0, 0);animation-play-state:paused" ><linearGradient id="lg-0.01852155765817276" x1="0" x2="1" y1="0" y2="0" style="animation-play-state:paused" ><stop stop-color="#ff00ff" offset="0" style="animation-play-state:paused" ></stop>

  
<stop stop-color="#00ffff" offset="1" style="animation-play-state:paused" ></stop></linearGradient>
<path d="M 0 0 L 0 569.98 Q 136.6 555.053 273.2 532.632 T 546.4 477.374 T 819.6 332.779 T 1092.8 338.66 T 1366 213.213 L 1366 0 Z" fill="url(#lg-0.01852155765817276)" opacity="0.4" style="opacity:0.4;animation-play-state:paused" ></path>
<path d="M 0 0 L 0 563.763 Q 136.6 572.559 273.2 540.382 T 546.4 468.128 T 819.6 361.67 T 1092.8 277.713 T 1366 257.554 L 1366 0 Z" fill="url(#lg-0.01852155765817276)" opacity="0.4" style="opacity:0.4;animation-play-state:paused" ></path>
<path d="M 0 0 L 0 599.57 Q 136.6 574.782 273.2 546.112 T 546.4 470.507 T 819.6 393.957 T 1092.8 300.076 T 1366 331.206 L 1366 0 Z" fill="url(#lg-0.01852155765817276)" opacity="0.4" style="opacity:0.4;animation-play-state:paused" ></path>
<path d="M 0 0 L 0 534.702 Q 136.6 530.58 273.2 498.925 T 546.4 442.161 T 819.6 388.481 T 1092.8 369.661 T 1366 342.585 L 1366 0 Z" fill="url(#lg-0.01852155765817276)" opacity="0.4" style="opacity:0.4;animation-play-state:paused" ></path>
<path d="M 0 0 L 0 594.261 Q 136.6 519.386 273.2 489.023 T 546.4 486.386 T 819.6 397.898 T 1092.8 365.089 T 1366 275.325 L 1366 0 Z" fill="url(#lg-0.01852155765817276)" opacity="0.4" style="opacity:0.4;animation-play-state:paused" ></path></g></svg>