<?xml version="1.0" encoding="utf-8"?><svg xmlns="http://www.w3.org/2000/svg" xmlns:xlink="http://www.w3.org/1999/xlink" width="1209" height="438" preserveAspectRatio="xMidYMid" viewBox="0 0 1209 438" style="z-index:1;margin-right:-2px;display:block;background-repeat-y:initial;background-repeat-x:initial;background-color:rgb(241, 242, 243);animation-play-state:paused" ><g transform="translate(604.5,219) scale(1,1) translate(-604.5,-219)" style="transform:matrix(1, 0, 0, 1, 0, 0);animation-play-state:paused" ><linearGradient id="lg-0.2991713303879049" x1="0" x2="1" y1="0" y2="0" style="animation-play-state:paused" ><stop stop-color="#15c4c2" offset="0" style="animation-play-state:paused" ></stop>

  
<stop stop-color="#1b75be" offset="1" style="animation-play-state:paused" ></stop></linearGradient>
<path d="M 0 0 L 0 429.346 Q 120.9 468.873 241.8 443.295 T 483.6 304.631 T 725.4 241.91 T 967.2 254.95 T 1209 185.387 L 1209 0 Z" fill="url(#lg-0.2991713303879049)" opacity="0.4" style="opacity:0.4;animation-play-state:paused" ></path>
<path d="M 0 0 L 0 523.222 Q 120.9 441.928 241.8 415.078 T 483.6 307.404 T 725.4 307.598 T 967.2 291.311 T 1209 210.331 L 1209 0 Z" fill="url(#lg-0.2991713303879049)" opacity="0.4" style="opacity:0.4;animation-play-state:paused" ></path>
<path d="M 0 0 L 0 420.622 Q 120.9 369.433 241.8 339.538 T 483.6 350.629 T 725.4 203.718 T 967.2 169.329 T 1209 76.4773 L 1209 0 Z" fill="url(#lg-0.2991713303879049)" opacity="0.4" style="opacity:0.4;animation-play-state:paused" ></path></g></svg>